<svg xmlns="http://www.w3.org/2000/svg" x="0px" y="0px"
width="80" height="80"
viewBox="0 0 172 172"
style=" fill:#4a90e2;"><g fill="none" fill-rule="nonzero" stroke="none" stroke-width="1" stroke-linecap="butt" stroke-linejoin="miter" stroke-miterlimit="10" stroke-dasharray="" stroke-dashoffset="0" font-family="none" font-weight="none" font-size="none" text-anchor="none" style="mix-blend-mode: normal"><path d="M0,172v-172h172v172z" fill="none"></path><g><path d="M85.9957,164.4793c-9.0429,-10.2211 -53.7457,-62.8789 -53.7457,-104.2793c0,-29.6399 24.1101,-53.75 53.75,-53.75c29.6399,0 53.75,24.1101 53.75,53.75c0,41.194 -44.7114,94.0238 -53.7543,104.2793z" fill="#82D0E1"></path><path d="M86,8.6c28.4531,0 51.6,23.1469 51.6,51.6c0,38.4076 -39.947,87.5007 -51.6043,101.0113c-11.6659,-13.4719 -51.5957,-62.4102 -51.5957,-101.0113c0,-28.4531 23.1469,-51.6 51.6,-51.6M86,4.3c-30.874,0 -55.9,25.026 -55.9,55.9c0,47.2183 55.9,107.5 55.9,107.5c0,0 55.9,-60.5182 55.9,-107.5c0,-30.874 -25.026,-55.9 -55.9,-55.9z" fill="#82D0E1"></path><path d="M86,96.75c-20.1541,0 -36.55,-16.3959 -36.55,-36.55c0,-20.1541 16.3959,-36.55 36.55,-36.55c20.1541,0 36.55,16.3959 36.55,36.55c0,20.1541 -16.3959,36.55 -36.55,36.55z" fill="#f2faff"></path><path d="M86,25.8c18.9974,0 34.4,15.4026 34.4,34.4c0,18.9974 -15.4026,34.4 -34.4,34.4c-18.9974,0 -34.4,-15.4026 -34.4,-34.4c0,-18.9974 15.4026,-34.4 34.4,-34.4M86,21.5c-21.3409,0 -38.7,17.3591 -38.7,38.7c0,21.3409 17.3591,38.7 38.7,38.7c21.3409,0 38.7,-17.3591 38.7,-38.7c0,-21.3409 -17.3591,-38.7 -38.7,-38.7z" fill="#82D0E1"></path><g fill="#34495e"><path d="M86,79.55c-10.6683,0 -19.35,-8.6817 -19.35,-19.35c0,-10.6683 8.6817,-19.35 19.35,-19.35c10.6683,0 19.35,8.6817 19.35,19.35c0,10.6683 -8.6817,19.35 -19.35,19.35z"></path><path d="M86,43c9.4858,0 17.2,7.7142 17.2,17.2c0,9.4858 -7.7142,17.2 -17.2,17.2c-9.4858,0 -17.2,-7.7142 -17.2,-17.2c0,-9.4858 7.7142,-17.2 17.2,-17.2M86,38.7c-11.8723,0 -21.5,9.6277 -21.5,21.5c0,11.8723 9.6277,21.5 21.5,21.5c11.8723,0 21.5,-9.6277 21.5,-21.5c0,-11.8723 -9.6277,-21.5 -21.5,-21.5z"></path></g><g fill="#36404d"><path d="M86,53.75c-3.56224,0 -6.45,2.88776 -6.45,6.45c0,3.56224 2.88776,6.45 6.45,6.45c3.56224,0 6.45,-2.88776 6.45,-6.45c0,-3.56224 -2.88776,-6.45 -6.45,-6.45z"></path><path d="M86,55.9c2.3693,0 4.3,1.9307 4.3,4.3c0,2.3693 -1.9307,4.3 -4.3,4.3c-2.3693,0 -4.3,-1.9307 -4.3,-4.3c0,-2.3693 1.9307,-4.3 4.3,-4.3M86,51.6c-4.7515,0 -8.6,3.8485 -8.6,8.6c0,4.7515 3.8485,8.6 8.6,8.6c4.7515,0 8.6,-3.8485 8.6,-8.6c0,-4.7515 -3.8485,-8.6 -8.6,-8.6z"></path></g></g></g></svg>