<svg xmlns="http://www.w3.org/2000/svg" x="0px" y="0px"
width="48" height="48"
viewBox="0 0 172 172"
style=" fill:#000000;"><g fill="none" fill-rule="nonzero" stroke="none" stroke-width="1" stroke-linecap="butt" stroke-linejoin="miter" stroke-miterlimit="10" stroke-dasharray="" stroke-dashoffset="0" font-family="none" font-weight="none" font-size="none" text-anchor="none" style="mix-blend-mode: normal"><path d="M0,172v-172h172v172z" fill="none"></path><g><path d="M86,64.5l16.84167,31.175l33.325,4.65833l-24.00833,24.00833l6.09167,36.90833l-32.25,-17.91667l-32.25,17.91667l6.09167,-36.90833l-24.00833,-24.00833l33.325,-4.65833zM93.16667,64.5h-14.33333c-3.94167,0 -7.16667,-3.225 -7.16667,-7.16667v-3.58333c0,-3.94167 3.225,-7.16667 7.16667,-7.16667h14.33333c3.94167,0 7.16667,3.225 7.16667,7.16667v3.58333c0,3.94167 -3.225,7.16667 -7.16667,7.16667zM78.83333,53.75v3.58333h14.33333v-3.58333z" fill="#ffd54f"></path><path d="M86,96.75c4.65833,0 8.95833,1.43333 12.18333,3.94167l4.3,-5.01667l-16.48333,-31.175zM112.15833,124.34167l24.00833,-24.00833l-30.81667,8.95833c1.43333,2.86667 2.15,5.73333 2.15,8.95833c0,1.43333 0,2.86667 -0.35833,3.94167zM86,139.75v3.58333l32.25,17.91667l-18.275,-26.51667c-3.94167,3.225 -8.6,5.01667 -13.975,5.01667zM64.85833,122.19167l-5.01667,1.79167l-6.09167,37.26667l18.275,-26.51667c-3.58333,-3.225 -6.09167,-7.525 -7.16667,-12.54167zM73.81667,100.69167l-4.3,-5.01667l-33.68333,4.65833l30.81667,8.95833c1.43333,-3.58333 3.94167,-6.45 7.16667,-8.6zM100.33333,118.25c0,7.88333 -6.45,14.33333 -14.33333,14.33333c-7.88333,0 -14.33333,-6.45 -14.33333,-14.33333c0,-7.88333 6.45,-14.33333 14.33333,-14.33333c7.88333,0 14.33333,6.45 14.33333,14.33333z" fill="#ffb300"></path><path d="M46.58333,10.75h78.83333v17.91667l-32.25,28.66667h-14.33333l-32.25,-28.66667z" fill="#3f51b5"></path><path d="M111.08333,10.75h-50.16667v30.81667l17.91667,15.76667h14.33333l17.91667,-15.76667z" fill="#cfd8dc"></path><path d="M78.83333,10.75h14.33333v46.58333h-14.33333z" fill="#ff1744"></path></g></g></svg>