<svg xmlns="http://www.w3.org/2000/svg" x="0px" y="0px"
width="48" height="48"
viewBox="0 0 172 172"
style=" fill:#000000;"><g fill="none" fill-rule="nonzero" stroke="none" stroke-width="1" stroke-linecap="butt" stroke-linejoin="miter" stroke-miterlimit="10" stroke-dasharray="" stroke-dashoffset="0" font-family="none" font-weight="none" font-size="none" text-anchor="none" style="mix-blend-mode: normal"><path d="M0,172v-172h172v172z" fill="none"></path><g><path d="M139.75,154.08333h-24.33083l-13.93917,17.37917l-22.93333,-53.2125h44.68417z" fill="#303a3e"></path><path d="M97.395,118.25l-23.29167,53.2125l-13.93917,-17.37917h-24.33083l16.51917,-35.83333z" fill="#303a3e"></path><path d="M144.49792,80.969c-1.96008,-3.55825 -1.96008,-7.87617 0,-11.43442l0.93883,-1.70567c3.06375,-5.57208 1.19325,-12.57392 -4.25342,-15.867l-1.66625,-1.0105c-3.47583,-2.107 -5.633,-5.84083 -5.719,-9.90075l-0.043,-1.94933c-0.129,-6.36042 -5.25317,-11.48458 -11.61358,-11.61358l-1.94933,-0.043c-4.0635,-0.08242 -7.80092,-2.24317 -9.90075,-5.719l-1.0105,-1.66625c-3.29308,-5.44308 -10.29492,-7.31717 -15.867,-4.25342l-1.70567,0.93883c-3.55825,1.96008 -7.87617,1.96008 -11.43442,0l-1.70208,-0.93525c-5.57208,-3.06375 -12.57033,-1.18967 -15.86342,4.25342l-1.0105,1.66625c-2.107,3.47583 -5.84083,5.633 -9.90075,5.719l-1.94933,0.043c-6.36042,0.129 -11.48458,5.25317 -11.61358,11.61358l-0.043,1.94933c-0.08242,4.0635 -2.24317,7.80092 -5.719,9.90075l-1.66625,1.0105c-5.4395,3.29308 -7.31717,10.29492 -4.25342,15.867l0.93883,1.70567c1.96008,3.55825 1.96008,7.87617 0,11.43442l-0.93525,1.70208c-3.06375,5.57208 -1.19325,12.57392 4.25342,15.867l1.66625,1.0105c3.47583,2.107 5.633,5.84083 5.719,9.90075l0.043,1.94933c0.129,6.36042 5.25317,11.48458 11.61358,11.61358l1.94933,0.043c4.0635,0.08242 7.80092,2.24317 9.90075,5.719l1.0105,1.66625c3.29308,5.4395 10.29492,7.31717 15.867,4.25342l1.70567,-0.93883c3.55825,-1.96008 7.87617,-1.96008 11.43442,0l1.70567,0.93883c5.57208,3.06375 12.57392,1.19325 15.867,-4.25342l1.0105,-1.66625c2.107,-3.47583 5.84083,-5.633 9.90075,-5.719l1.94933,-0.043c6.36042,-0.129 11.48458,-5.25317 11.61358,-11.61358l0.043,-1.94933c0.08242,-4.0635 2.24317,-7.80092 5.719,-9.90075l1.66625,-1.0105c5.4395,-3.29308 7.31717,-10.29492 4.25342,-15.867z" fill="#ef5a36"></path><path d="M85.99642,32.25c-23.74824,0 -43,19.25176 -43,43c0,23.74824 19.25176,43 43,43c23.74824,0 43,-19.25176 43,-43c0,-23.74824 -19.25176,-43 -43,-43z" fill="#ef5a36"></path><path d="M86,121.83692c-25.68533,0 -46.58333,-20.898 -46.58333,-46.58333c0,-25.68533 20.89442,-46.58692 46.58333,-46.58692c25.68892,0 46.58333,20.898 46.58333,46.58333c0,25.68533 -20.898,46.58692 -46.58333,46.58692zM86,35.83333c-21.7365,0 -39.41667,17.68375 -39.41667,39.41667c0,21.73292 17.68375,39.41667 39.41667,39.41667c21.73292,0 39.41667,-17.68375 39.41667,-39.41667c0,-21.73292 -17.68375,-39.41667 -39.41667,-39.41667z" fill="#ffca28"></path></g><g fill="#ffca28"><g id="IOS_copy"><path d="M85.58333,33.75l12.18333,25.08333l27.23333,3.58333l-19.70833,19.35l5.375,27.23333l-25.08333,-12.9l-25.08333,12.9l5.375,-27.23333l-19.70833,-19.35l27.23333,-3.58333z"></path></g></g></g></svg>