<svg xmlns="http://www.w3.org/2000/svg" x="0px" y="0px"
width="48" height="48"
viewBox="0 0 172 172"
style=" fill:#000000;"><g fill="none" fill-rule="nonzero" stroke="none" stroke-width="1" stroke-linecap="butt" stroke-linejoin="miter" stroke-miterlimit="10" stroke-dasharray="" stroke-dashoffset="0" font-family="none" font-weight="none" font-size="none" text-anchor="none" style="mix-blend-mode: normal"><path d="M0,172v-172h172v172z" fill="none"></path><g><path d="M143.33333,143.33333c-24.725,0 -57.33333,14.33333 -57.33333,14.33333v-78.83333c0,0 32.25,-14.33333 64.5,-14.33333z" fill="#5c6bc0"></path><path d="M28.66667,143.33333c24.725,0 57.33333,14.33333 57.33333,14.33333v-78.83333c0,0 -32.25,-14.33333 -64.5,-14.33333z" fill="#7986cb"></path><path d="M86,14.33333c-15.83216,0 -28.66667,12.8345 -28.66667,28.66667c0,15.83216 12.8345,28.66667 28.66667,28.66667c15.83216,0 28.66667,-12.8345 28.66667,-28.66667c0,-15.83216 -12.8345,-28.66667 -28.66667,-28.66667zM146.91667,114.66667h3.58333c2.15,0 3.58333,-1.43333 3.58333,-3.58333v-14.33333c0,-2.15 -1.43333,-3.58333 -3.58333,-3.58333h-3.58333c-6.09167,0 -10.75,4.65833 -10.75,10.75v0c0,6.09167 4.65833,10.75 10.75,10.75zM25.08333,93.16667h-3.58333c-2.15,0 -3.58333,1.43333 -3.58333,3.58333v14.33333c0,2.15 1.43333,3.58333 3.58333,3.58333h3.58333c6.09167,0 10.75,-4.65833 10.75,-10.75v0c0,-6.09167 -4.65833,-10.75 -10.75,-10.75z" fill="#ffb74d"></path></g></g></svg>