<svg xmlns="http://www.w3.org/2000/svg" x="0px" y="0px"
width="80" height="80"
viewBox="0 0 172 172"
style=" fill:#000000;"><g fill="none" fill-rule="nonzero" stroke="none" stroke-width="1" stroke-linecap="butt" stroke-linejoin="miter" stroke-miterlimit="10" stroke-dasharray="" stroke-dashoffset="0" font-family="none" font-weight="none" font-size="none" text-anchor="none" style="mix-blend-mode: normal"><path d="M0,172v-172h172v172z" fill="none"></path><g><path d="M10.75,10.75h150.5v150.5h-150.5z" fill="#82d0e1"></path><path d="M159.1,12.9v146.2h-146.2v-146.2h146.2M163.4,8.6h-154.8v154.8h154.8v-154.8z" fill="#82d0e1"></path><g fill="#ffffff"><path d="M111.8,159.1v-55.9h21.199l3.0014,-21.5h-24.2004v-14.5512c0,-6.7424 3.0186,-11.3348 12.685,-11.3348l13.115,-0.0043v-20.4422c-2.1328,-0.2838 -10.2383,-0.9159 -18.7523,-0.9159c-17.7762,0 -28.5477,10.8489 -28.5477,30.7751v16.4733h-21.5v21.5h21.5v55.9z"></path></g></g></g></svg>