<svg xmlns="http://www.w3.org/2000/svg" x="0px" y="0px"
width="80" height="80"
viewBox="0 0 172 172"
style=" fill:#4a90e2;"><g fill="none" fill-rule="nonzero" stroke="none" stroke-width="1" stroke-linecap="butt" stroke-linejoin="miter" stroke-miterlimit="10" stroke-dasharray="" stroke-dashoffset="0" font-family="none" font-weight="none" font-size="none" text-anchor="none" style="mix-blend-mode: normal"><path d="M0,172v-172h172v172z" fill="none"></path><g><path d="M144.05,66.65v-38.7h15.05c1.1868,0 2.15,0.9632 2.15,2.15v34.4c0,1.1868 -0.9632,2.15 -2.15,2.15z" fill="#34495e"></path><path d="M159.1,30.1v34.4h-12.9v-34.4h12.9M159.1,25.8h-17.2v43h17.2c2.3736,0 4.3,-1.9264 4.3,-4.3v-34.4c0,-2.3736 -1.9264,-4.3 -4.3,-4.3z" fill="#34495e"></path><path d="M144.05,105.35v-38.7h15.05c1.1868,0 2.15,0.9632 2.15,2.15v34.4c0,1.1868 -0.9632,2.15 -2.15,2.15z" fill="#ffffff"></path><path d="M159.1,68.8v34.4h-12.9v-34.4h12.9M159.1,64.5h-17.2v43h17.2c2.3736,0 4.3,-1.9264 4.3,-4.3v-34.4c0,-2.3736 -1.9264,-4.3 -4.3,-4.3z" fill="#34495e"></path><path d="M144.05,144.05v-38.7h15.05c1.1868,0 2.15,0.9632 2.15,2.15v34.4c0,1.1868 -0.9632,2.15 -2.15,2.15z" fill="#dff0fe"></path><path d="M159.1,107.5v34.4h-12.9v-34.4h12.9M159.1,103.2h-17.2v43h17.2c2.3736,0 4.3,-1.9264 4.3,-4.3v-34.4c0,-2.3736 -1.9264,-4.3 -4.3,-4.3z" fill="#34495e"></path><g><path d="M23.65,161.25v-150.5h122.55c1.1868,0 2.15,0.9632 2.15,2.15v146.2c0,1.1868 -0.9632,2.15 -2.15,2.15z" fill="#a8defb"></path><path d="M146.2,12.9v146.2h-120.4v-146.2h120.4M146.2,8.6h-124.7v154.8h124.7c2.3736,0 4.3,-1.9264 4.3,-4.3v-146.2c0,-2.3736 -1.9264,-4.3 -4.3,-4.3z" fill="#34495e"></path></g><g fill="#34495e"><path d="M17.2,161.25c-1.1868,0 -2.15,-0.9632 -2.15,-2.15v-146.2c0,-1.1868 0.9632,-2.15 2.15,-2.15h15.05v150.5z"></path><path d="M30.1,12.9v146.2h-12.9v-146.2h12.9M34.4,8.6h-17.2c-2.3736,0 -4.3,1.9264 -4.3,4.3v146.2c0,2.3736 1.9264,4.3 4.3,4.3h17.2v-154.8z"></path></g><g fill="#ffffff"><path d="M97.3133,100.1943h-0.2107c-2.0038,5.9856 -5.9297,8.9741 -11.7734,8.9741c-3.7281,0 -6.7381,-1.3975 -9.0171,-4.1968c-2.2833,-2.795 -3.4228,-6.5618 -3.4228,-11.2918c0,-6.2608 1.5652,-11.4681 4.6956,-15.6133c3.1304,-4.1452 7.2584,-6.2221 12.3797,-6.2221c1.9479,0 3.6894,0.5375 5.2202,1.6082c1.5308,1.0707 2.5198,2.3607 2.9627,3.8614h0.1247c0.0817,-0.7783 0.2924,-2.3779 0.6278,-4.8031h6.9316c-1.3072,14.6931 -1.9608,22.1837 -1.9608,22.4589c0,5.5126 1.4319,8.2646 4.3,8.2646c2.6144,0 4.7859,-1.5394 6.5145,-4.6139c1.7243,-3.0745 2.5886,-7.0606 2.5886,-11.9626c0,-7.2369 -2.3306,-13.1451 -6.9918,-17.7203c-4.6612,-4.5795 -11.1241,-6.8671 -19.393,-6.8671c-7.9335,0 -14.4996,2.7692 -19.7069,8.3076c-5.203,5.5384 -7.8088,12.47 -7.8088,20.7905c0,8.2087 2.5069,14.835 7.5164,19.8703c5.0095,5.0353 11.7562,7.5551 20.2487,7.5551c6.6779,0 12.3969,-1.1438 17.157,-3.4228v6.4285c-4.8719,2.0726 -10.9564,3.1003 -18.2449,3.1003c-10.2426,0 -18.4943,-3.0616 -24.7551,-9.1848c-6.2651,-6.1232 -9.3955,-14.1384 -9.3955,-24.0456c0,-10.1867 3.311,-18.6319 9.9373,-25.3399c6.622,-6.708 15.0844,-10.062 25.3829,-10.062c9.6578,0 17.6515,2.8122 23.9854,8.4323c6.3339,5.6201 9.4944,12.9559 9.4944,22.0031c0,6.622 -1.72,12.0572 -5.1557,16.3013c-3.44,4.2441 -7.6325,6.3683 -12.5861,6.3683c-6.4027,-0.0043 -9.6191,-2.9928 -9.6449,-8.9784zM90.6741,77.7741c-3.0616,0 -5.5298,1.505 -7.4089,4.5107c-1.8791,3.0057 -2.8165,6.7467 -2.8165,11.2316c0,3.0057 0.6321,5.3793 1.9006,7.1165c1.2685,1.7372 2.9584,2.6101 5.074,2.6101c3.0616,0 5.4825,-1.5781 7.2627,-4.7386c1.7802,-3.1562 2.6703,-7.3401 2.6703,-12.5431c0,-5.4567 -2.2274,-8.1872 -6.6822,-8.1872z"></path></g></g></g></svg>