<svg xmlns="http://www.w3.org/2000/svg" x="0px" y="0px"
width="48" height="48"
viewBox="0 0 172 172"
style=" fill:#000000;"><g fill="none" fill-rule="nonzero" stroke="none" stroke-width="1" stroke-linecap="butt" stroke-linejoin="miter" stroke-miterlimit="10" stroke-dasharray="" stroke-dashoffset="0" font-family="none" font-weight="none" font-size="none" text-anchor="none" style="mix-blend-mode: normal"><path d="M0,172v-172h172v172z" fill="none"></path><g><path d="M143.33333,78.83333h-28.66667l-14.33333,14.33333v-50.16667c0,-7.88333 6.45,-14.33333 14.33333,-14.33333h28.66667c7.88333,0 14.33333,6.45 14.33333,14.33333v21.5c0,7.88333 -6.45,14.33333 -14.33333,14.33333z" fill="#2196f3"></path><path d="M60.91667,39.41667c-15.83216,0 -28.66667,12.8345 -28.66667,28.66667c0,15.83216 12.8345,28.66667 28.66667,28.66667c15.83216,0 28.66667,-12.8345 28.66667,-28.66667c0,-15.83216 -12.8345,-28.66667 -28.66667,-28.66667z" fill="#ffa726"></path><path d="M107.5,131.50833c0,0 -12.9,-24.00833 -46.58333,-24.00833c-33.68333,0 -46.58333,24.00833 -46.58333,24.00833v11.825h93.16667z" fill="#607d8b"></path></g></g></svg>