<svg xmlns="http://www.w3.org/2000/svg" x="0px" y="0px"
width="80" height="80"
viewBox="0 0 172 172"
style=" fill:#000000;"><g fill="none" fill-rule="nonzero" stroke="none" stroke-width="1" stroke-linecap="none" stroke-linejoin="miter" stroke-miterlimit="10" stroke-dasharray="" stroke-dashoffset="0" font-family="none" font-weight="none" font-size="none" text-anchor="none" style="mix-blend-mode: normal"><path d="M0,172v-172h172v172z" fill="none" stroke="none" stroke-linecap="butt"></path><g><path d="M86,165.55c-43.8643,0 -79.55,-35.6857 -79.55,-79.55c0,-43.8643 35.6857,-79.55 79.55,-79.55c43.8643,0 79.55,35.6857 79.55,79.55c0,43.8643 -35.6857,79.55 -79.55,79.55z" fill="#82d0e1" stroke="none" stroke-linecap="butt"></path><path d="M86,8.6c42.6775,0 77.4,34.7225 77.4,77.4c0,42.6775 -34.7225,77.4 -77.4,77.4c-42.6775,0 -77.4,-34.7225 -77.4,-77.4c0,-42.6775 34.7225,-77.4 77.4,-77.4M86,4.3c-45.1199,0 -81.7,36.5801 -81.7,81.7c0,45.1199 36.5801,81.7 81.7,81.7c45.1199,0 81.7,-36.5801 81.7,-81.7c0,-45.1199 -36.5801,-81.7 -81.7,-81.7z" fill="#ffffff" stroke="none" stroke-linecap="butt"></path><path d="M13.1623,51.6h145.9377l-4.3989,-4.3h-137.1442zM158.8377,120.4h-145.9377l4.3989,4.3h137.1442z" fill="#ffffff" stroke="none" stroke-linecap="butt"></path><path d="M135.0931,53.75c-8.3807,-27.8253 -27.2147,-47.3 -49.0931,-47.3c-21.8784,0 -40.7124,19.4747 -49.0888,47.3M36.9112,118.25c8.3807,27.8253 27.2104,47.3 49.0888,47.3c21.8784,0 40.7124,-19.4747 49.0931,-47.3" fill="none" stroke="#ffffff" stroke-linecap="round"></path><path d="M68.3915,118.25c3.2981,28.939 10.7457,47.3 17.6085,47.3c6.8628,0 14.3104,-18.361 17.6085,-47.3M103.6085,53.75c-3.2981,-28.939 -10.7457,-47.3 -17.6085,-47.3c-6.8628,0 -14.3104,18.361 -17.6085,47.3" fill="none" stroke="#ffffff" stroke-linecap="round"></path><g fill="#ffffff" stroke="none" stroke-linecap="butt"><path d="M52.8427,68.8h6.8499l-7.9636,34.4h-7.525l-5.0009,-22.0676c-0.2666,-1.1524 -0.4257,-2.4424 -0.4816,-3.8657h-0.086c-0.1247,1.5652 -0.3096,2.8552 -0.5461,3.8614l-5.1299,22.0719h-7.8346l-7.9249,-34.4h7.4175l4.2441,22.9104c0.1849,0.9761 0.3139,2.2876 0.3999,3.9345h0.1247c0.0559,-1.2298 0.258,-2.5757 0.6106,-4.0291l5.4653,-22.8158h7.2713l4.9407,23.0996c0.1849,0.8471 0.344,2.0812 0.4816,3.6937h0.086c0.0559,-1.2642 0.2021,-2.5413 0.4429,-3.8399z"></path></g><g fill="#ffffff" stroke="none" stroke-linecap="butt"><path d="M96.234,91.7577c-0.2365,1.2943 -0.3827,2.5757 -0.4429,3.8399h-0.086c-0.1419,-1.6125 -0.301,-2.8466 -0.4816,-3.6937l-4.9364,-23.1039h-7.2713l-5.4653,22.8115c-0.3526,1.4577 -0.5504,2.7993 -0.6106,4.0291h-0.1247c-0.086,-1.6469 -0.215,-2.9584 -0.3999,-3.9345l-4.2398,-22.9061h-7.4175l7.9249,34.4h7.8389l5.1299,-22.0676c0.2365,-1.0062 0.4214,-2.2962 0.5461,-3.8614h0.086c0.0559,1.4233 0.215,2.709 0.4816,3.8614l4.9923,22.0676h7.525l7.9636,-34.4h-6.8499z"></path></g><g fill="#ffffff" stroke="none" stroke-linecap="butt"><path d="M147.9501,68.8l-4.1624,22.9577c-0.2365,1.2943 -0.3827,2.5757 -0.4429,3.8399h-0.086c-0.1419,-1.6125 -0.301,-2.8466 -0.4816,-3.6937l-4.9364,-23.1039h-7.2713l-5.4653,22.8115c-0.3526,1.4577 -0.5504,2.7993 -0.6106,4.0291h-0.1247c-0.086,-1.6469 -0.215,-2.9584 -0.3999,-3.9345l-4.2441,-22.9061h-7.4175l7.9249,34.4h7.8389l5.1299,-22.0676c0.2365,-1.0062 0.4214,-2.2962 0.5461,-3.8614h0.086c0.0559,1.4233 0.215,2.709 0.4816,3.8614l4.9966,22.0676h7.525l7.9636,-34.4z"></path></g></g></g></svg>