<svg xmlns="http://www.w3.org/2000/svg" x="0px" y="0px"
width="48" height="48"
viewBox="0 0 172 172"
style=" fill:#000000;"><g fill="none" fill-rule="nonzero" stroke="none" stroke-width="1" stroke-linecap="butt" stroke-linejoin="miter" stroke-miterlimit="10" stroke-dasharray="" stroke-dashoffset="0" font-family="none" font-weight="none" font-size="none" text-anchor="none" style="mix-blend-mode: normal"><path d="M0,172v-172h172v172z" fill="none"></path><g><path d="M44.075,146.2c0.35833,-0.35833 4.65833,-5.01667 11.46667,-12.18333c10.03333,-10.39167 53.75,-56.975 54.46667,-57.69167c3.225,-3.225 18.63333,8.6 31.53333,-4.3c8.24167,-8.24167 11.10833,-18.63333 7.525,-31.175l-16.48333,16.48333c0,0 -6.09167,0 -12.18333,-5.73333c-5.73333,-6.09167 -5.73333,-12.18333 -5.73333,-12.18333l16.48333,-16.125c-11.825,-3.58333 -23.29167,-0.71667 -31.53333,7.525c-12.54167,12.54167 -1.43333,28.30833 -4.65833,31.53333c-0.71667,0.35833 -61.99167,58.76667 -62.70833,59.48333v0c-6.09167,5.73333 -6.45,6.09167 -6.80833,6.09167c-5.01667,5.375 -5.375,13.975 -0.35833,18.99167c5.01667,5.01667 13.61667,4.65833 18.99167,-0.71667zM35.83333,130.79167c2.86667,0 5.375,2.50833 5.375,5.375c0,2.86667 -2.50833,5.375 -5.375,5.375c-2.86667,0 -5.375,-2.50833 -5.375,-5.375c0,-2.86667 2.15,-5.375 5.375,-5.375z" fill="#607d8b"></path><path d="M143.33333,132.58333l-91.375,-90.65833l-8.95833,-13.25833l-16.48333,-7.16667l-5.01667,5.01667l7.16667,16.48333l13.25833,8.95833l91.375,90.65833z" fill="#b0bec5"></path><path d="M94.95833,74.53333c-7.525,-17.91667 -11.825,-8.24167 -20.425,0v0c-8.24167,8.24167 -17.91667,12.54167 0,20.425c17.55833,7.525 36.90833,41.925 44.43333,49.80833c7.525,7.525 16.84167,8.24167 25.44167,0v0c8.24167,-8.24167 7.525,-17.55833 0,-25.44167c-7.525,-7.525 -41.925,-26.875 -49.45,-44.79167z" fill="#ffc107"></path><path d="M74.53333,74.53333c8.24167,-8.24167 12.54167,-17.91667 20.425,0l-20.425,20.425c-17.55833,-7.525 -8.24167,-11.825 0,-20.425z" fill="#ff9800"></path></g></g></svg>