<svg xmlns="http://www.w3.org/2000/svg" x="0px" y="0px"
width="50" height="50"
viewBox="0 0 172 172"
style=" fill:#000000;"><g fill="none" fill-rule="nonzero" stroke="none" stroke-width="1" stroke-linecap="butt" stroke-linejoin="miter" stroke-miterlimit="10" stroke-dasharray="" stroke-dashoffset="0" font-family="none" font-weight="none" font-size="none" text-anchor="none" style="mix-blend-mode: normal"><path d="M0,172v-172h172v172z" fill="#00233d"></path><g fill="#ffffff"><g id="surface1"><path d="M86,6.88c-24.65781,0 -44.72,20.06219 -44.72,44.72c0,17.46875 10.68281,39.03594 21.12375,56.73313c10.4275,17.69719 20.855,31.36312 20.855,31.36312l2.74125,3.56094l2.74125,-3.56094c0,0 10.4275,-13.66594 20.855,-31.36312c10.44094,-17.69719 21.12375,-39.26438 21.12375,-56.73313c0,-24.65781 -20.06219,-44.72 -44.72,-44.72zM86,13.76c20.93563,0 37.84,16.90438 37.84,37.84c0,14.49906 -9.95719,35.93188 -20.15625,53.23938c-8.84187,14.98281 -15.46656,23.60969 -17.68375,26.56594c-2.21719,-2.95625 -8.84187,-11.58313 -17.68375,-26.56594c-10.19906,-17.3075 -20.15625,-38.74031 -20.15625,-53.23938c0,-20.93562 16.90438,-37.84 37.84,-37.84zM86,34.4c-9.46,0 -17.2,7.74 -17.2,17.2c0,9.46 7.74,17.2 17.2,17.2c9.46,0 17.2,-7.74 17.2,-17.2c0,-9.46 -7.74,-17.2 -17.2,-17.2zM86,41.28c5.73781,0 10.32,4.58219 10.32,10.32c0,5.73781 -4.58219,10.32 -10.32,10.32c-5.73781,0 -10.32,-4.58219 -10.32,-10.32c0,-5.73781 4.58219,-10.32 10.32,-10.32zM25.10125,110.08l-19.6725,55.04h161.1425l-19.6725,-55.04h-26.32406c-1.34375,2.365 -2.6875,4.66281 -4.03125,6.88h25.51781l14.7275,41.28h-141.5775l14.7275,-41.28h25.51781c-1.34375,-2.21719 -2.6875,-4.515 -4.03125,-6.88z"></path></g></g></g></svg>