<svg xmlns="http://www.w3.org/2000/svg" x="0px" y="0px"
width="64" height="64"
viewBox="0 0 172 172"
style=" fill:#000000;"><g fill="none" fill-rule="nonzero" stroke="none" stroke-width="1" stroke-linecap="butt" stroke-linejoin="miter" stroke-miterlimit="10" stroke-dasharray="" stroke-dashoffset="0" font-family="none" font-weight="none" font-size="none" text-anchor="none" style="mix-blend-mode: normal"><path d="M0,172v-172h172v172z" fill="#00122c"></path><g fill="#ffffff"><path d="M38.96875,1.34375c-9.675,0 -17.46875,7.79375 -17.46875,17.46875v9.40625h-2.6875c-5.9125,0 -10.75,4.8375 -10.75,10.75c0,5.9125 4.8375,10.75 10.75,10.75h13.4375c5.9125,0 10.75,-4.8375 10.75,-10.75c0,-2.28437 -1.74688,-4.03125 -4.03125,-4.03125c-2.28437,0 -4.03125,1.74688 -4.03125,4.03125c0,1.47812 -1.20938,2.6875 -2.6875,2.6875h-13.4375c-1.47812,0 -2.6875,-1.20938 -2.6875,-2.6875c0,-1.47812 1.20938,-2.6875 2.6875,-2.6875h6.71875c2.28438,0 4.03125,-1.74688 4.03125,-4.03125v-13.4375c0,-5.24062 4.16562,-9.40625 9.40625,-9.40625h102.125c5.24062,0 9.40625,4.16563 9.40625,9.40625v134.375c0,5.24062 -4.16563,9.40625 -9.40625,9.40625h-102.125c-5.24063,0 -9.40625,-4.16563 -9.40625,-9.40625v-9.40625h2.6875c5.9125,0 10.75,-4.8375 10.75,-10.75c0,-2.28438 -1.74688,-4.03125 -4.03125,-4.03125c-2.28437,0 -4.03125,1.74687 -4.03125,4.03125c0,1.47813 -1.20938,2.6875 -2.6875,2.6875h-13.4375c-1.47812,0 -2.6875,-1.20937 -2.6875,-2.6875c0,-1.47813 1.20938,-2.6875 2.6875,-2.6875h6.71875c2.28438,0 4.03125,-1.74687 4.03125,-4.03125v-16.125c0,-2.28437 -1.74687,-4.03125 -4.03125,-4.03125c-2.28438,0 -4.03125,1.74688 -4.03125,4.03125v12.09375h-2.6875c-5.9125,0 -10.75,4.8375 -10.75,10.75c0,5.9125 4.8375,10.75 10.75,10.75h2.6875v9.40625c0,9.675 7.79375,17.46875 17.46875,17.46875h102.125c9.675,0 17.46875,-7.79375 17.46875,-17.46875v-134.375c0,-9.675 -7.79375,-17.46875 -17.46875,-17.46875zM92.71875,32.25c-9.675,0 -17.46875,7.79375 -17.46875,17.46875c0,9.675 7.79375,17.46875 17.46875,17.46875c9.675,0 17.46875,-7.79375 17.46875,-17.46875c0,-9.675 -7.79375,-17.46875 -17.46875,-17.46875zM92.71875,40.3125c5.24063,0 9.40625,4.16562 9.40625,9.40625c0,5.24063 -4.16562,9.40625 -9.40625,9.40625c-5.24063,0 -9.40625,-4.16562 -9.40625,-9.40625c0,-5.24063 4.16562,-9.40625 9.40625,-9.40625zM25.53125,59.125c-2.28438,0 -4.03125,1.74687 -4.03125,4.03125v12.09375h-2.6875c-5.9125,0 -10.75,4.8375 -10.75,10.75c0,5.9125 4.8375,10.75 10.75,10.75h13.4375c5.9125,0 10.75,-4.8375 10.75,-10.75c0,-2.28437 -1.74688,-4.03125 -4.03125,-4.03125c-2.28437,0 -4.03125,1.74688 -4.03125,4.03125c0,1.47812 -1.20938,2.6875 -2.6875,2.6875h-13.4375c-1.47812,0 -2.6875,-1.20938 -2.6875,-2.6875c0,-1.47813 1.20938,-2.6875 2.6875,-2.6875h6.71875c2.28438,0 4.03125,-1.74688 4.03125,-4.03125v-16.125c0,-2.28438 -1.74687,-4.03125 -4.03125,-4.03125zM64.5,95.40625c-2.28438,0 -4.03125,1.74688 -4.03125,4.03125c0,2.28437 1.74687,4.03125 4.03125,4.03125h37.625c2.28437,0 4.03125,-1.74688 4.03125,-4.03125c0,-2.28437 -1.74688,-4.03125 -4.03125,-4.03125zM122.28125,95.40625c-2.2264,0 -4.03125,1.80485 -4.03125,4.03125c0,2.2264 1.80485,4.03125 4.03125,4.03125c2.2264,0 4.03125,-1.80485 4.03125,-4.03125c0,-2.2264 -1.80485,-4.03125 -4.03125,-4.03125zM64.5,115.5625c-2.28438,0 -4.03125,1.74688 -4.03125,4.03125c0,2.28437 1.74687,4.03125 4.03125,4.03125h57.78125c2.28437,0 4.03125,-1.74688 4.03125,-4.03125c0,-2.28437 -1.74688,-4.03125 -4.03125,-4.03125z"></path></g></g></svg>