<svg xmlns="http://www.w3.org/2000/svg" x="0px" y="0px"
width="50" height="50"
viewBox="0 0 172 172"
style=" fill:#000000;"><g fill="none" fill-rule="nonzero" stroke="none" stroke-width="1" stroke-linecap="butt" stroke-linejoin="miter" stroke-miterlimit="10" stroke-dasharray="" stroke-dashoffset="0" font-family="none" font-weight="none" font-size="none" text-anchor="none" style="mix-blend-mode: normal"><path d="M0,172v-172h172v172z" fill="#00233d"></path><g fill="#ffffff"><path d="M51.6,6.88c-9.45834,0 -17.2,7.74166 -17.2,17.2v123.84c0,9.45834 7.74166,17.2 17.2,17.2h68.8c9.45834,0 17.2,-7.74166 17.2,-17.2v-123.84c0,-9.45834 -7.74166,-17.2 -17.2,-17.2zM59.22578,13.76h53.54844c-0.81382,1.40094 -1.42005,2.9441 -1.69985,4.61578l-1.0414,6.26859c0,0.00224 0,0.00448 0,0.00672c-0.27873,1.67936 -1.68651,2.86891 -3.39297,2.86891h-41.28c-1.70646,0 -3.11208,-1.19377 -3.39297,-2.87562l-1.04813,-6.26187v-0.00672c-0.27903,-1.67238 -0.87996,-3.2154 -1.69312,-4.61578zM49.28875,14.03547c0.04446,0.0166 0.08926,0.03228 0.13438,0.04703c2.40537,0.76514 4.27367,2.80713 4.70984,5.42875l1.04813,6.26859c0.82679,4.95047 5.15673,8.62016 10.1789,8.62016h41.28c5.02012,0 9.35429,-3.67028 10.1789,-8.62016v-0.00672l1.04141,-6.26187c0.44864,-2.6805 2.39953,-4.74958 4.87781,-5.46906c4.59144,1.05086 7.98187,5.10725 7.98187,10.03781v123.84c0,5.73958 -4.58042,10.32 -10.32,10.32h-68.8c-5.73958,0 -10.32,-4.58042 -10.32,-10.32v-123.84c0,-4.94033 3.40341,-9.0036 8.00875,-10.04453zM75.68,17.2c-1.24059,-0.01754 -2.39452,0.63425 -3.01993,1.7058c-0.62541,1.07155 -0.62541,2.39684 0,3.46839c0.62541,1.07155 1.77935,1.72335 3.01993,1.7058h10.32c1.24059,0.01754 2.39452,-0.63425 3.01993,-1.7058c0.62541,-1.07155 0.62541,-2.39684 0,-3.46839c-0.62541,-1.07155 -1.77935,-1.72335 -3.01993,-1.7058zM96.32,17.2c-1.89986,0 -3.44,1.54014 -3.44,3.44c0,1.89986 1.54014,3.44 3.44,3.44c1.89986,0 3.44,-1.54014 3.44,-3.44c0,-1.89986 -1.54014,-3.44 -3.44,-3.44z"></path></g></g></svg>