<svg xmlns="http://www.w3.org/2000/svg" x="0px" y="0px"
width="50" height="50"
viewBox="0 0 172 172"
style=" fill:#000000;"><g fill="none" fill-rule="nonzero" stroke="none" stroke-width="1" stroke-linecap="butt" stroke-linejoin="miter" stroke-miterlimit="10" stroke-dasharray="" stroke-dashoffset="0" font-family="none" font-weight="none" font-size="none" text-anchor="none" style="mix-blend-mode: normal"><path d="M0,172v-172h172v172z" fill="#00233d"></path><g fill="#ffffff"><g id="surface1"><path d="M86,6.88c-36.48281,0 -67.26812,24.8325 -76.37875,58.48h7.17563c2.58,-8.61344 6.75906,-16.51469 12.12062,-23.44844c5.87219,3.30562 12.67156,6.07375 20.19656,8.19687c-1.26313,4.82406 -2.29781,9.90344 -3.02344,15.25156h7.01437c0.69875,-4.73 1.65281,-9.245 2.78156,-13.545c8.29094,1.8275 17.25375,2.91594 26.67344,3.1175v10.4275h6.88v-10.4275c9.41969,-0.20156 18.3825,-1.27656 26.67344,-3.1175c1.12875,4.3 2.08281,8.815 2.78156,13.545h7.01438c-0.72563,-5.34812 -1.76031,-10.4275 -3.02344,-15.25156c7.525,-2.12312 14.32438,-4.89125 20.19656,-8.19687c5.36156,6.93375 9.54063,14.835 12.10719,23.44844h7.18906c-9.11062,-33.6475 -39.89594,-58.48 -76.37875,-58.48zM82.56,14.17656v33.87594c-8.74781,-0.20156 -17.06562,-1.20937 -24.725,-2.87562c5.65719,-16.91781 14.62,-28.76969 24.725,-31.00031zM89.44,14.17656c10.105,2.23062 19.06781,14.0825 24.725,31.00031c-7.65937,1.66625 -15.97719,2.67406 -24.725,2.87562zM65.81688,16.68938c-6.06031,6.39625 -11.12625,15.61437 -14.78125,26.79437c-6.57094,-1.85437 -12.51031,-4.20594 -17.58969,-6.93375c8.7075,-9.25844 19.84719,-16.19219 32.37094,-19.86062zM106.18313,16.68938c12.52375,3.66844 23.66344,10.60219 32.37094,19.86062c-5.07938,2.72781 -11.01875,5.07938 -17.58969,6.93375c-3.655,-11.18 -8.72094,-20.39812 -14.78125,-26.79437zM10.32,72.24l8.73438,27.52h8.00875l7.28312,-20.57281l7.28313,20.57281h7.83406l8.89563,-27.52h-7.44438l-5.61687,19.22906l-6.42313,-19.22906h-8.77469l-6.69187,18.90656l-5.52281,-18.90656zM61.97375,72.24l8.74781,27.52h8.02219l7.25625,-20.57281l7.29656,20.57281h7.83406l8.89562,-27.52h-7.45781l-5.60344,19.22906l-6.42312,-19.22906h-8.78813l-6.69187,18.90656l-5.50938,-18.90656zM113.46625,72.24l8.76125,27.52h8.04906l7.29656,-20.57281l7.32344,20.57281h7.86094l8.9225,-27.52h-7.47125l-5.64375,19.22906l-6.43656,-19.22906h-8.815l-6.71875,18.90656l-5.54969,-18.90656zM9.62125,106.64c9.11063,33.6475 39.89594,58.48 76.37875,58.48c36.48281,0 67.26813,-24.8325 76.37875,-58.48h-7.18906c-2.56656,8.61344 -6.74562,16.51469 -12.10719,23.44844c-5.87219,-3.30562 -12.67156,-6.07375 -20.19656,-8.19687c1.26313,-4.82406 2.29781,-9.90344 3.02344,-15.25156h-7.01438c-0.69875,4.73 -1.65281,9.245 -2.78156,13.545c-8.29094,-1.8275 -17.25375,-2.91594 -26.67344,-3.1175v-10.4275h-6.88v10.4275c-9.41969,0.20156 -18.3825,1.27656 -26.67344,3.1175c-1.12875,-4.3 -2.08281,-8.815 -2.78156,-13.545h-7.01437c0.72562,5.34813 1.76031,10.4275 3.02344,15.25156c-7.525,2.12312 -14.32438,4.89125 -20.19656,8.19687c-5.36156,-6.93375 -9.54062,-14.835 -12.12062,-23.44844zM82.56,123.9475v33.87594c-10.105,-2.23062 -19.06781,-14.0825 -24.725,-31.00031c7.65938,-1.66625 15.97719,-2.67406 24.725,-2.87563zM89.44,123.9475c8.74781,0.20156 17.06563,1.20938 24.725,2.87563c-5.65719,16.91781 -14.62,28.76969 -24.725,31.00031zM51.04906,128.51625c3.655,11.18 8.7075,20.39813 14.76781,26.78094c-12.52375,-3.655 -23.66344,-10.58875 -32.37094,-19.84719c5.07938,-2.74125 11.01875,-5.07937 17.60313,-6.93375zM120.96438,128.51625c6.57094,1.85438 12.51031,4.20594 17.58969,6.93375c-8.7075,9.25844 -19.84719,16.19219 -32.37094,19.84719c6.06031,-6.38281 11.12625,-15.60094 14.78125,-26.78094z"></path></g></g></g></svg>