<svg xmlns="http://www.w3.org/2000/svg" x="0px" y="0px"
width="64" height="64"
viewBox="0 0 226 226"
style=" fill:#000000;"><g fill="none" fill-rule="nonzero" stroke="none" stroke-width="1" stroke-linecap="butt" stroke-linejoin="miter" stroke-miterlimit="10" stroke-dasharray="" stroke-dashoffset="0" font-family="none" font-weight="none" font-size="none" text-anchor="none" style="mix-blend-mode: normal"><path d="M0,226v-226h226v226z" fill="none"></path><g fill="#9b59b6"><path d="M24.71875,1.76563c-12.7125,0 -22.95312,10.24063 -22.95312,22.95313v141.25c0,12.7125 10.24063,22.95313 22.95313,22.95313h98.875c3.00156,0 5.29688,-2.29531 5.29688,-5.29687c0,-3.00156 -2.29531,-5.29687 -5.29687,-5.29687h-98.875c-6.88594,0 -12.35937,-5.47344 -12.35937,-12.35937v-141.25c0,-6.88594 5.47344,-12.35937 12.35938,-12.35937h176.5625c6.88594,0 12.35938,5.47344 12.35938,12.35938v70.625c0,3.00156 2.29531,5.29688 5.29688,5.29688c3.00156,0 5.29688,-2.29531 5.29688,-5.29687v-70.625c0,-12.7125 -10.24062,-22.95312 -22.95312,-22.95312zM33.54688,54.73438c-3.00156,0 -5.29687,2.29531 -5.29687,5.29688c0,3.00156 2.29531,5.29688 5.29688,5.29688h158.90625c3.00156,0 5.29688,-2.29531 5.29688,-5.29687c0,-3.00156 -2.29531,-5.29687 -5.29687,-5.29687zM33.54688,90.04688c-3.00156,0 -5.29687,2.29531 -5.29687,5.29688c0,3.00156 2.29531,5.29688 5.29688,5.29688h93.57813c3.00156,0 5.29688,-2.29531 5.29688,-5.29687c0,-3.00156 -2.29531,-5.29687 -5.29687,-5.29687zM188.92188,104.17188c-19.42187,0 -35.3125,15.89063 -35.3125,35.3125c0,19.42188 15.89063,35.3125 35.3125,35.3125c19.42188,0 35.3125,-15.89062 35.3125,-35.3125c0,-19.42187 -15.89062,-35.3125 -35.3125,-35.3125zM188.92188,114.76563c13.59531,0 24.71875,11.12344 24.71875,24.71875c0,13.59531 -11.12344,24.71875 -24.71875,24.71875c-13.59531,0 -24.71875,-11.12344 -24.71875,-24.71875c0,-13.59531 11.12344,-24.71875 24.71875,-24.71875zM33.54688,125.35938c-3.00156,0 -5.29687,2.29531 -5.29687,5.29688c0,3.00156 2.29531,5.29688 5.29688,5.29688h58.26563c3.00156,0 5.29688,-2.29531 5.29688,-5.29687c0,-3.00156 -2.29531,-5.29687 -5.29687,-5.29687zM127.125,125.35938c-2.92538,0 -5.29687,2.37149 -5.29687,5.29688c0,2.92538 2.37149,5.29688 5.29688,5.29688c2.92538,0 5.29688,-2.37149 5.29688,-5.29687c0,-2.92538 -2.37149,-5.29687 -5.29687,-5.29687zM158.90625,178.32813c-3.00156,0 -5.29687,2.29531 -5.29687,5.29688v35.3125c0,1.94219 1.05937,3.70712 2.64844,4.58994c1.58906,0.88281 3.70781,0.88281 5.29688,0l27.36719,-16.0665l27.36719,16.0665c0.88281,0.52969 1.76563,0.70694 2.64844,0.70694c0.88281,0 1.76563,-0.17725 2.64844,-0.70694c1.58906,-0.88281 2.64844,-2.64775 2.64844,-4.58994v-35.3125c0,-3.00156 -2.29531,-5.29687 -5.29687,-5.29687c-3.00156,0 -5.29687,2.29531 -5.29687,5.29688v26.13263l-22.07031,-12.89044c-1.58906,-1.05937 -3.70781,-1.05937 -5.29687,0l-22.07031,12.89044v-26.13263c0,-3.00156 -2.29531,-5.29687 -5.29687,-5.29687z"></path></g></g></svg>