<svg xmlns="http://www.w3.org/2000/svg" x="0px" y="0px"
width="64" height="64"
viewBox="0 0 172 172"
style=" fill:#000000;"><g fill="none" fill-rule="nonzero" stroke="none" stroke-width="1" stroke-linecap="butt" stroke-linejoin="miter" stroke-miterlimit="10" stroke-dasharray="" stroke-dashoffset="0" font-family="none" font-weight="none" font-size="none" text-anchor="none" style="mix-blend-mode: normal"><path d="M0,172v-172h172v172z" fill="none"></path><g fill="#e67e22"><path d="M87.41199,34.90338c-0.5375,0 -1.07552,0.10026 -1.54584,0.30182l-81.96875,33.59375c-1.6125,0.67188 -2.55365,2.15105 -2.55365,3.76355c0,1.6125 0.94115,3.09167 2.55365,3.76355l24.32135,9.94165v33.32605c0,5.77813 2.41875,11.15312 6.71875,14.78125c14.10938,11.95937 32.11615,17.87292 50.25678,17.87292c18.275,0 36.6849,-6.0474 51.60052,-18.00677c4.43437,-3.49375 6.98645,-8.86928 6.98645,-14.6474v-32.92187l24.4552,-10.34583c1.47813,-0.67187 2.4198,-2.15105 2.4198,-3.76355c0,-1.6125 -0.94167,-3.09167 -2.4198,-3.76355l-79.28125,-33.59375c-0.47031,-0.20156 -1.00571,-0.30182 -1.54321,-0.30182zM87.34375,43.2677l68.93542,29.2948l-68.93542,29.2948l-71.3526,-29.2948zM166.625,81.96875c-2.28438,0 -4.03125,1.74688 -4.03125,4.03125v25.3974c0,2.28437 1.74687,4.03125 4.03125,4.03125c2.28438,0 4.03125,-1.88125 4.03125,-4.03125v-25.3974c0,-2.28437 -1.74687,-4.03125 -4.03125,-4.03125zM36.28125,89.62708l49.5849,20.29272h0.13385c8.0625,2.95625 15.18385,5.37343 22.9776,5.77655c2.15,0.13437 3.8974,1.88125 3.8974,4.03125v19.21667c-24.32187,9.675 -52.80885,6.04688 -72.69635,-10.75c-2.41875,-2.15 -3.8974,-5.24115 -3.8974,-8.60053z"></path></g></g></svg>