<svg xmlns="http://www.w3.org/2000/svg" x="0px" y="0px"
width="64" height="64"
viewBox="0 0 172 172"
style=" fill:#000000;"><g fill="none" fill-rule="nonzero" stroke="none" stroke-width="1" stroke-linecap="butt" stroke-linejoin="miter" stroke-miterlimit="10" stroke-dasharray="" stroke-dashoffset="0" font-family="none" font-weight="none" font-size="none" text-anchor="none" style="mix-blend-mode: normal"><path d="M0,172v-172h172v172z" fill="#00122b"></path><g fill="#ffffff"><path d="M88.16522,14.88623c-12.19693,-0.05446 -24.47095,2.07861 -35.89282,6.61377c-21.09687,8.46562 -37.35573,24.05365 -44.4776,42.86615c-6.18125,16.25938 -5.10677,33.86302 2.82135,49.5849c13.57188,26.74062 42.05832,42.72968 76.18957,42.72968c18.67813,0 34.40105,-13.1677 37.3573,-31.17395c0.40312,-2.15 -1.075,-4.3 -3.35937,-4.70312c-2.15,-0.40313 -4.3,1.075 -4.70312,3.35938c-2.41875,14.24375 -14.78178,24.4552 -29.42865,24.4552c-31.04062,0 -56.84115,-14.37813 -69.06928,-38.29688c-6.71875,-13.70625 -7.65832,-29.02447 -2.28332,-43.13385c6.31562,-16.6625 20.82707,-30.63803 39.90832,-38.16303c33.45938,-13.30312 74.84635,-4.30052 96.21198,20.96198l1.2099,1.48022c2.82188,3.225 3.35938,3.89688 5.375,8.0625c4.43437,9.27187 1.2099,20.28958 -7.52448,25.79895c-3.225,2.01563 -5.77708,2.9552 -8.3302,2.9552h-8.33282c-6.85312,0 -13.0349,4.03335 -15.99115,10.2146c-0.94063,2.01563 0,4.43438 2.01563,5.375c2.01563,0.94063 4.43437,0 5.375,-2.01562c1.47812,-3.35937 4.83802,-5.51147 8.60052,-5.51147h8.33282c5.24062,0 9.40468,-2.28385 12.4953,-4.1651c12.49687,-7.65937 16.93125,-23.11302 10.75,-36.1474c-2.55312,-5.10625 -3.62865,-6.44843 -6.5849,-9.8078l-1.20728,-1.4776c-16.16699,-19.03086 -42.62446,-29.74189 -69.4577,-29.86169zM100.56342,31.20544c-3.05741,-0.12055 -6.07991,0.68539 -8.67139,2.31219c-7.10253,4.45687 -9.24801,13.82719 -4.79236,20.93048c2.1403,3.41152 5.54822,5.83302 9.47398,6.73177c3.92576,0.89875 8.04776,0.20112 11.45913,-1.93942c7.10253,-4.45687 9.24801,-13.82719 4.79236,-20.93048c-2.66376,-4.24719 -7.25225,-6.9058 -12.26172,-7.10455zM62.79144,37.12897c-3.05686,-0.12212 -6.07932,0.68198 -8.67139,2.30695c-7.10531,4.45426 -9.25445,13.82514 -4.80023,20.93048c2.13903,3.41282 5.54637,5.83596 9.47223,6.73621c3.92586,0.90025 8.04855,0.20384 11.46088,-1.93598c7.10439,-4.45513 9.2523,-13.82582 4.79761,-20.93048c-2.66264,-4.24744 -7.25007,-6.907 -12.25909,-7.10718zM134.16241,48.67944c-3.05802,-0.12187 -6.08149,0.68317 -8.67401,2.30957c-7.10439,4.45513 -9.2523,13.82582 -4.79761,20.93048c4.45513,7.10439 13.82582,9.2523 20.93048,4.79761c7.10531,-4.45427 9.25444,-13.82514 4.80022,-20.93048c-2.66264,-4.24744 -7.25006,-6.90699 -12.25909,-7.10718zM37.42816,66.82794c-3.05775,-0.12265 -6.0812,0.68147 -8.67401,2.30695c-7.10439,4.45513 -9.2523,13.82582 -4.79761,20.93048c4.45426,7.10531 13.82514,9.25445 20.93048,4.80023c7.10531,-4.45426 9.25445,-13.82514 4.80023,-20.93048c-2.66264,-4.24744 -7.25007,-6.90699 -12.25909,-7.10718zM84.64575,96.17786c-4.02338,-0.14409 -8.13704,0.85822 -11.81555,3.12579c-9.675,6.04688 -12.62915,18.9453 -6.58228,28.6203c2.95625,4.70313 7.52395,7.92865 13.03333,9.2724c1.6125,0.40312 3.09063,0.53802 4.70313,0.53802c3.89688,0 7.65833,-1.07552 11.0177,-3.22552c9.675,-6.04688 12.63177,-18.9453 6.5849,-28.6203c-3.7793,-6.04687 -10.2356,-9.47055 -16.94122,-9.71069zM83.85053,104.27447c4.3,0 8.4651,2.15053 10.88385,5.91303c3.7625,5.9125 1.88125,13.8401 -4.03125,17.6026c-2.82187,1.74687 -6.31458,2.42032 -9.67395,1.61407c-3.35937,-0.80625 -6.18177,-2.82345 -7.92865,-5.64532c-3.7625,-5.9125 -1.88125,-13.8401 4.03125,-17.6026c2.15,-1.34375 4.43438,-1.88178 6.71875,-1.88178z"></path></g></g></svg>