<svg xmlns="http://www.w3.org/2000/svg" x="0px" y="0px"
width="64" height="64"
viewBox="0 0 172 172"
style=" fill:#000000;"><g fill="none" fill-rule="nonzero" stroke="none" stroke-width="1" stroke-linecap="butt" stroke-linejoin="miter" stroke-miterlimit="10" stroke-dasharray="" stroke-dashoffset="0" font-family="none" font-weight="none" font-size="none" text-anchor="none" style="mix-blend-mode: normal"><path d="M0,172v-172h172v172z" fill="#00122c"></path><g fill="#ffffff"><path d="M32.25,1.34375c-9.675,0 -17.46875,7.79375 -17.46875,17.46875v87.34375c0,9.675 7.79375,17.46875 17.46875,17.46875h92.45105l25.6651,25.6651c0.80625,0.80625 1.74635,1.2099 2.82135,1.2099c0.5375,0 1.07448,-0.13333 1.4776,-0.2677c1.47813,-0.67187 2.55365,-2.15105 2.55365,-3.76355v-127.65625c0,-9.675 -7.79375,-17.46875 -17.46875,-17.46875zM32.25,9.40625h107.5c5.24062,0 9.40625,4.16563 9.40625,9.40625v117.9823l-20.0224,-20.0224c-0.67187,-0.80625 -1.74635,-1.2099 -2.82135,-1.2099h-94.0625c-5.24062,0 -9.40625,-4.16562 -9.40625,-9.40625v-87.34375c0,-5.24062 4.16563,-9.40625 9.40625,-9.40625zM53.75,48.375c-2.28438,0 -4.03125,1.74687 -4.03125,4.03125c0,2.28438 1.74687,4.03125 4.03125,4.03125h64.5c2.28437,0 4.03125,-1.74687 4.03125,-4.03125c0,-2.28438 -1.74688,-4.03125 -4.03125,-4.03125zM53.75,68.53125c-2.28438,0 -4.03125,1.74688 -4.03125,4.03125c0,2.28437 1.74687,4.03125 4.03125,4.03125h44.34375c2.28437,0 4.03125,-1.74688 4.03125,-4.03125c0,-2.28437 -1.74688,-4.03125 -4.03125,-4.03125zM118.25,68.53125c-2.2264,0 -4.03125,1.80485 -4.03125,4.03125c0,2.2264 1.80485,4.03125 4.03125,4.03125c2.2264,0 4.03125,-1.80485 4.03125,-4.03125c0,-2.2264 -1.80485,-4.03125 -4.03125,-4.03125zM32.25,162.59375c-2.2264,0 -4.03125,1.80485 -4.03125,4.03125c0,2.2264 1.80485,4.03125 4.03125,4.03125c2.2264,0 4.03125,-1.80485 4.03125,-4.03125c0,-2.2264 -1.80485,-4.03125 -4.03125,-4.03125zM52.40625,162.59375c-2.28438,0 -4.03125,1.74687 -4.03125,4.03125c0,2.28438 1.74687,4.03125 4.03125,4.03125h100.78125c2.28438,0 4.03125,-1.74687 4.03125,-4.03125c0,-2.28438 -1.74687,-4.03125 -4.03125,-4.03125z"></path></g></g></svg>