<svg xmlns="http://www.w3.org/2000/svg" x="0px" y="0px"
width="50" height="50"
viewBox="0 0 172 172"
style=" fill:#000000;"><g fill="none" fill-rule="nonzero" stroke="none" stroke-width="1" stroke-linecap="butt" stroke-linejoin="miter" stroke-miterlimit="10" stroke-dasharray="" stroke-dashoffset="0" font-family="none" font-weight="none" font-size="none" text-anchor="none" style="mix-blend-mode: normal"><path d="M0,172v-172h172v172z" fill="none"></path><g fill="#ffffff"><path d="M27.52,10.36031c-5.80462,0 -10.88595,1.6509 -14.60656,4.65609c-3.72061,3.00519 -5.99312,7.45786 -5.99312,12.32219c0,9.43788 8.45204,16.74317 19.62547,17.17984c0.31516,0.10089 0.64336,0.15521 0.97422,0.16125c6.03227,0 11.1669,-1.76821 14.835,-4.89797c3.6681,-3.12976 5.76469,-7.64202 5.76469,-12.44312c-0.0005,-0.06276 -0.00274,-0.12549 -0.00672,-0.18812c-0.52983,-9.49748 -8.98372,-16.79016 -20.59297,-16.79016zM27.52,17.15969c8.9752,0 13.40184,4.40686 13.78015,10.26625c-0.02442,2.86303 -1.13279,5.295 -3.35265,7.18906c-2.2444,1.915 -5.70977,3.26531 -10.4275,3.26531c-8.95069,0 -13.80031,-4.85917 -13.80031,-10.54172c0,-2.84128 1.16748,-5.17728 3.46688,-7.03453c2.29939,-1.85725 5.81806,-3.14437 10.33344,-3.14438zM10.32,51.6c-1.89978,0.00019 -3.43981,1.54022 -3.44,3.44v99.76c0.00019,1.89978 1.54022,3.43981 3.44,3.44h34.4c1.89978,-0.00019 3.43981,-1.54022 3.44,-3.44v-32.11563v-67.64437c-0.00019,-1.89978 -1.54022,-3.43981 -3.44,-3.44zM61.92,51.6c-1.89978,0.00019 -3.43981,1.54022 -3.44,3.44v99.76c0.00019,1.89978 1.54022,3.43981 3.44,3.44h34.4c1.89978,-0.00019 3.43981,-1.54022 3.44,-3.44v-55.04v-0.86v-0.86c0,-6.68882 5.35118,-12.04 12.04,-12.04c6.68882,0 12.04,5.35118 12.04,12.04v56.76c0.00019,1.89978 1.54022,3.43981 3.44,3.44h34.4c1.89978,-0.00019 3.43981,-1.54022 3.44,-3.44v-58.48c0,-14.19524 -4.16967,-25.44068 -11.20015,-33.11c-7.03049,-7.66932 -16.83856,-11.61 -27.37219,-11.61c-13.43058,0 -21.55324,4.9057 -26.78765,8.94937v-5.50937c-0.00019,-1.89978 -1.54022,-3.43981 -3.44,-3.44zM13.76,58.48h27.52v64.20437v28.67563h-27.52zM65.36,58.48h27.52v9.07703c0.00045,1.42492 0.87925,2.70209 2.20991,3.21171c1.33067,0.50962 2.83778,0.1462 3.78993,-0.91389c0,0 10.20201,-11.37485 27.66781,-11.37485c8.85077,0 16.60976,3.1726 22.29953,9.37937c5.68977,6.20678 9.39281,15.60027 9.39281,28.46063v55.04h-27.52v-53.32c0.00432,-0.48543 -0.09414,-0.96627 -0.2889,-1.41094c-0.76353,-9.72052 -8.72276,-17.50906 -18.6311,-17.50906c-10.40798,0 -18.92,8.51202 -18.92,18.92v0.86v0.86v51.6h-27.52z"></path></g></g></svg>