<svg xmlns="http://www.w3.org/2000/svg" x="0px" y="0px"
width="64" height="64"
viewBox="0 0 172 172"
style=" fill:#000000;"><g fill="none" fill-rule="nonzero" stroke="none" stroke-width="1" stroke-linecap="butt" stroke-linejoin="miter" stroke-miterlimit="10" stroke-dasharray="" stroke-dashoffset="0" font-family="none" font-weight="none" font-size="none" text-anchor="none" style="mix-blend-mode: normal"><path d="M0,172v-172h172v172z" fill="none"></path><g fill="#e74c3c"><path d="M24.4552,20.2901c-5.375,0.13438 -9.67395,4.43595 -9.67395,9.67657v95.13593c0,5.375 4.29895,9.67657 9.67395,9.67657h40.71667c0,9.00313 -0.94115,10.07655 -5.91303,12.4953h-2.82135c-2.28438,0 -4.03125,1.74687 -4.03125,4.03125c0,2.28438 1.74687,4.03125 4.03125,4.03125h3.76355h51.46405h3.8974c2.28437,0 4.03125,-1.74687 4.03125,-4.03125c0,-2.28438 -1.74688,-4.03125 -4.03125,-4.03125h-2.82135c-4.8375,-2.41875 -5.91303,-3.62655 -5.91303,-12.4953h40.71667c5.375,0 9.67395,-4.30157 9.67395,-9.67657v-95.13593c0,-5.375 -4.29895,-9.67657 -9.67395,-9.67657zM24.4552,28.3526h123.22345c0.80625,0 1.61145,0.67345 1.61145,1.61407v74.3078h-126.44635v-74.3078c0,-0.80625 0.67083,-1.61407 1.61145,-1.61407zM22.84375,112.47083h126.3125v12.76563c0,0.80625 -0.67083,1.61407 -1.61145,1.61407h-123.0896c-0.80625,0 -1.61145,-0.67345 -1.61145,-1.61407zM86,115.5625c-2.2264,0 -4.03125,1.80485 -4.03125,4.03125c0,2.2264 1.80485,4.03125 4.03125,4.03125c2.2264,0 4.03125,-1.80485 4.03125,-4.03125c0,-2.2264 -1.80485,-4.03125 -4.03125,-4.03125zM73.23438,141.49792h25.53125v5.375h-25.53125z"></path></g></g></svg>