<?xml version="1.0"?>
<svg xmlns="http://www.w3.org/2000/svg" height="64px" viewBox="-99 0 486 486.50659" width="64px"><g><path d="m50.4375 194.082031c.894531 2.171875 2.695312 3.839844 4.929688 4.5625 2.234374.726563 4.671874.433594 6.671874-.800781l39.714844-24.527344 3.605469 13.378906-37.738281 226.570313c-.441406 2.648437.476562 5.34375 2.441406 7.171875l68.742188 63.925781c3.070312 2.859375 7.828124 2.859375 10.902343 0l68.742188-63.925781c1.9375-1.804688 2.859375-4.449219 2.457031-7.070312l-34.671875-226.769532 2.734375-11.914062 37.5 23.160156c1.996094 1.234375 4.4375 1.527344 6.671875.800781 2.230469-.722656 4.035156-2.390625 4.925781-4.5625l49.574219-120.464843c.402344-.964844.609375-2 .613281-3.046876v-62.640624c-.007812-.355469-.035156-.710938-.089844-1.0625-.011718-.082032-.027343-.167969-.042968-.25-.050782-.328126-.125-.65625-.222656-.976563 0-.011719-.003907-.027344-.011719-.039063-.101563-.335937-.230469-.667968-.378907-.984374-.027343-.066407-.058593-.128907-.089843-.191407-.140625-.285156-.292969-.5625-.464844-.828125-.019531-.03125-.035156-.0625-.054687-.09375-.191407-.277344-.398438-.546875-.621094-.800781-.054688-.0625-.113282-.125-.171875-.1875-.203125-.21875-.417969-.429687-.640625-.625-.039063-.03125-.070313-.066406-.109375-.101563-.265625-.214843-.542969-.417968-.832031-.597656-.066407-.042968-.132813-.082031-.199219-.121094-.617188-.367187-1.277344-.648437-1.964844-.839843-.074219-.019531-.148437-.039063-.222656-.054688-.308594-.0781248-.625-.1367185-.941407-.175781-.035156 0-.074218.128906-.109374.125-.28125-.0273438-.566407.101562-.855469.101562h-271.957031c-.285157-.046874-.574219-.082031-.859376-.101562-.027343 0-.054687-.0625-.082031-.0585938-.328125.0273438-.652343.0781248-.976562.1445318-.066407.015624-.132813.015624-.199219.035156-.691406.1875-1.355469.46875-1.96875.832031-.066406.039063-.132812.074219-.203125.113281-.289063.183594-.566406.382813-.832031.601563-.035156.03125-.070313.0625-.105469.101562-.226563.195313-.441406.402344-.644531.625-.058594.0625-.117188.125-.171875.1875-.222657.253907-.429688.523438-.621094.800781-.015625.03125-.035156.0625-.054687.09375-.167969.265626-.324219.539063-.460938.824219-.03125.066407-.066406.128907-.09375.191407-.148438.320312-.273438.652343-.378906.988281 0 .011719-.007813.023437-.011719.039062-.09375.320313-.164063.648438-.21875.976563-.015625.082031-.035156.164062-.046875.25-.054688.351562-.082031.703125-.089844 1.058594v62.640624c.003906 1.046876.210938 2.078126.609375 3.042969zm11.199219-14.800781-45.382813-110.292969v-42.371093l114.96875 109.683593zm82.617187-53.027344-50.351562-48.035156h100.699218zm67.121094-64.035156h-134.242188l-48.886718-46h232.015625zm-12.433594 313.359375-99.394531-56.617187 7.410156-44.5 84.484375 52.078124zm-89.144531-118.160156 5.972656-35.855469 66.285157 43.539062 6.21875 40.6875zm61.429687-63.199219 7.570313 49.5625-60.152344-39.535156 1.667969-10.027344zm-26.972656 273.359375-60.144531-55.929687 3.707031-22.261719 89.160156 47.761719zm45.105469-41.945313-98.765625-52.910156 6.152344-36.945312 105.277344 59.96875 2.425781 15.855468zm-17.636719-247.414062h-52.0625l-3.707031-13.710938 28.300781-17.460937 30.335938 18.707031zm55.144532 1.0625-69.582032-42.980469 114.96875-109.683593v42.371093zm0 0" data-original="#000000" class="active-path" data-old_color="#000000" fill="#9ACD3A"/></g> </svg>
