<svg xmlns="http://www.w3.org/2000/svg" x="0px" y="0px"
width="80" height="80"
viewBox="0 0 172 172"
style=" fill:#000000;"><g fill="none" fill-rule="nonzero" stroke="none" stroke-width="1" stroke-linecap="butt" stroke-linejoin="miter" stroke-miterlimit="10" stroke-dasharray="" stroke-dashoffset="0" font-family="none" font-weight="none" font-size="none" text-anchor="none" style="mix-blend-mode: normal"><path d="M0,172v-172h172v172z" fill="none"></path><g><path d="M10.75,10.75h150.5v150.5h-150.5z" fill="#82d0e1"></path><path d="M159.1,12.9v146.2h-146.2v-146.2h146.2M163.4,8.6h-154.8v154.8h154.8v-154.8z" fill="#82d0e1"></path><path d="M34.4,68.8h21.5v47.5623v21.2377h-21.5zM45.15,60.2v0c-6.45,0 -10.75,-4.8719 -10.75,-10.8919c0,-6.02 4.3,-10.6081 10.75,-10.6081c6.45,0 10.4834,4.5881 10.75,10.6081c0,6.02 -4.0334,10.8919 -10.75,10.8919z" fill="#ffffff"></path><g fill="#ffffff"><path d="M111.5764,68.8c-14.061,0 -21.2764,9.2708 -21.2764,9.2708v-9.2708h-21.5v68.8h21.5v-38.7c0,-7.1251 5.7749,-12.9 12.9,-12.9c7.1251,0 12.9,5.7749 12.9,12.9v38.7h21.5v-38.8892c0,-20.038 -11.6659,-29.9108 -26.0236,-29.9108z"></path></g></g></g></svg>