<svg xmlns="http://www.w3.org/2000/svg" x="0px" y="0px"
width="80" height="80"
viewBox="0 0 172 172"
style=" fill:#000000;"><g fill="none" fill-rule="nonzero" stroke="none" stroke-width="1" stroke-linecap="butt" stroke-linejoin="miter" stroke-miterlimit="10" stroke-dasharray="" stroke-dashoffset="0" font-family="none" font-weight="none" font-size="none" text-anchor="none" style="mix-blend-mode: normal"><path d="M0,172v-172h172v172z" fill="none"></path><g><path d="M52.1762,161.25c-6.2436,0 -11.3262,-5.0826 -11.3262,-11.3262v-127.8476c0,-6.2436 5.0826,-11.3262 11.3262,-11.3262h67.6476c6.2436,0 11.3262,5.0826 11.3262,11.3262v127.8476c0,6.2436 -5.0826,11.3262 -11.3262,11.3262z" fill="#ffffff"></path><path d="M119.8238,12.9c5.0611,0 9.1762,4.1151 9.1762,9.1762v127.8476c0,5.0611 -4.1151,9.1762 -9.1762,9.1762h-67.6476c-5.0611,0 -9.1762,-4.1151 -9.1762,-9.1762v-127.8476c0,-5.0611 4.1151,-9.1762 9.1762,-9.1762h67.6476M119.8238,8.6h-67.6476c-7.4433,0 -13.4762,6.0329 -13.4762,13.4762v127.8476c0,7.4433 6.0329,13.4762 13.4762,13.4762h67.6476c7.4433,0 13.4762,-6.0329 13.4762,-13.4762v-127.8476c0,-7.4433 -6.0329,-13.4762 -13.4762,-13.4762z" fill="#66798f"></path><path d="M40.85,27.95h90.3v111.8h-90.3z" fill="#82d0e1"></path><path d="M129,30.1v107.5h-86v-107.5h86M133.3,25.8h-94.6v116.1h94.6v-116.1zM86,146.2c-2.37482,0 -4.3,1.92518 -4.3,4.3c0,2.37482 1.92518,4.3 4.3,4.3c2.37482,0 4.3,-1.92518 4.3,-4.3c0,-2.37482 -1.92518,-4.3 -4.3,-4.3zM86,17.2c-1.18741,0 -2.15,0.96259 -2.15,2.15c0,1.18741 0.96259,2.15 2.15,2.15c1.18741,0 2.15,-0.96259 2.15,-2.15c0,-1.18741 -0.96259,-2.15 -2.15,-2.15z" fill="#66798f"></path><path d="M87.0965,68.8301c1.3416,-1.6082 3.4873,-2.6832 5.3664,-2.9498c0.2666,2.1457 -0.5375,4.2914 -1.6082,5.633c-1.3416,1.6082 -3.2207,2.6832 -5.3664,2.6832c-0.5375,-1.8791 0.2666,-3.7582 1.6082,-5.3664zM98.6334,95.9287c-1.6082,2.1457 -3.7582,5.0998 -6.1705,5.0998c-2.4123,0 -2.9498,-1.6082 -5.9039,-1.3416c-3.2207,0 -3.7582,1.6082 -6.1705,1.3416c-2.6832,0 -4.5623,-2.4166 -5.9039,-4.8289c-4.0248,-6.1705 -4.5623,-13.6826 -1.8791,-17.7074c1.8791,-2.6832 4.5623,-4.2914 7.2455,-4.2914c2.6832,0 4.5623,1.6082 6.708,1.6082c2.1457,0 3.4873,-1.6082 6.708,-1.6082c2.4166,0 4.8289,1.3416 6.708,3.4873c-5.9039,3.2207 -4.8289,11.5369 1.075,13.9535c-1.075,1.8705 -1.6082,2.6789 -2.4166,4.2871z" fill="#82d0e1"></path></g></g></svg>