<svg xmlns="http://www.w3.org/2000/svg" x="0px" y="0px"
width="48" height="48"
viewBox="0 0 172 172"
style=" fill:#000000;"><g fill="none" fill-rule="nonzero" stroke="none" stroke-width="1" stroke-linecap="butt" stroke-linejoin="miter" stroke-miterlimit="10" stroke-dasharray="" stroke-dashoffset="0" font-family="none" font-weight="none" font-size="none" text-anchor="none" style="mix-blend-mode: normal"><path d="M0,172v-172h172v172z" fill="none"></path><g><path d="M111.08333,143.33333c10.75,0 -60.91667,0 -50.16667,0c10.75,0 10.75,-17.91667 10.75,-17.91667h28.66667c0,0 0,17.91667 10.75,17.91667z" fill="#90a4ae"></path><path d="M150.5,25.08333h-129c-3.94167,0 -7.16667,3.225 -7.16667,7.16667v78.83333h143.33333v-78.83333c0,-3.94167 -3.225,-7.16667 -7.16667,-7.16667z" fill="#455a64"></path><path d="M21.5,32.25h129v71.66667h-129z" fill="#90caf9"></path><path d="M14.33333,111.08333h143.33333v7.16667c0,3.94167 -3.225,7.16667 -7.16667,7.16667h-129c-3.94167,0 -7.16667,-3.225 -7.16667,-7.16667zM114.66667,143.33333h-57.33333v7.16667h57.33333z" fill="#b0bec5"></path><path d="M121.475,92.80833c-11.46667,-11.10833 -24.36667,-17.55833 -35.475,-17.55833c-11.10833,0 -24.00833,6.45 -35.475,17.55833l-20.425,-20.425c16.84167,-16.125 37.26667,-25.8 55.9,-25.8c18.63333,0 39.05833,9.675 55.54167,26.15833z" fill="#e3f2fd"></path><path d="M89.58333,118.25c0,2.15 -1.43333,3.58333 -3.58333,3.58333c-2.15,0 -3.58333,-1.43333 -3.58333,-3.58333c0,-2.15 1.43333,-3.58333 3.58333,-3.58333c2.15,0 3.58333,1.43333 3.58333,3.58333zM86,96.75c0,0 -0.35833,0 0,0l-29.38333,-44.79167c-1.075,-1.79167 -3.225,-2.15 -5.01667,-1.075c-1.79167,1.075 -2.15,3.225 -1.075,5.01667l29.025,45.15c-0.35833,0.71667 -0.71667,1.79167 -0.71667,2.86667h14.33333c0,-3.94167 -3.225,-7.16667 -7.16667,-7.16667z" fill="#37474f"></path></g></g></svg>