<svg xmlns="http://www.w3.org/2000/svg" x="0px" y="0px"
width="80" height="80"
viewBox="0 0 172 172"
style=" fill:#000000;"><g fill="none" fill-rule="nonzero" stroke="none" stroke-width="1" stroke-linecap="butt" stroke-linejoin="miter" stroke-miterlimit="10" stroke-dasharray="" stroke-dashoffset="0" font-family="none" font-weight="none" font-size="none" text-anchor="none" style="mix-blend-mode: normal"><path d="M0,172v-172h172v172z" fill="none"></path><g fill="#82d0e1"><path d="M55.6893,150.5c-14.878,0 -29.4249,-3.5389 -42.5571,-10.2985c15.4327,-0.1806 29.9839,-5.2847 42.1271,-14.8006l4.7558,-3.7281l-6.0458,-0.1118c-12.255,-0.2279 -23.1297,-7.5336 -28.0532,-18.5158c1.0019,0.086 2.0038,0.1247 3.0014,0.1247c3.2035,0 6.364,-0.4214 9.4041,-1.2513l8.7634,-2.3951l-8.9053,-1.7888c-13.5622,-2.7219 -23.6629,-14.104 -25.0088,-27.6705c4.042,1.7114 8.4108,2.6832 12.8097,2.8251l7.5164,0.2408l-6.2522,-4.1796c-8.7419,-5.8308 -13.9578,-15.5961 -13.9578,-26.1053c0,-4.5064 0.9675,-8.9483 2.8122,-13.0075c17.372,19.909 42.1787,32.0049 68.5592,33.325l2.8423,0.1419l-0.6364,-2.7735c-0.5375,-2.3306 -0.8084,-4.7386 -0.8084,-7.1552c0,-17.2989 14.0739,-31.3728 31.3728,-31.3728c8.6473,0 16.9936,3.612 22.9018,9.9072l0.8127,0.8686l1.1696,-0.2322c5.7491,-1.1309 11.3004,-2.9713 16.5679,-5.4997c-2.6015,4.9235 -6.3898,8.9397 -11.1542,11.7906l-1.7114,1.0234l1.5695,3.139l1.5652,-0.0688c4.2484,-0.5203 8.342,-1.4104 12.3625,-2.7004c-3.4658,4.1194 -7.4175,7.7873 -11.7992,10.9521l-0.9374,0.6751l0.0473,1.161c0.0602,1.4061 0.0903,2.8251 0.0903,4.2441c0.0043,45.8337 -34.8687,93.2369 -93.224,93.2369z"></path><path d="M117.4287,24.1531c8.0539,0 15.8283,3.3626 21.3323,9.2278l1.6297,1.7372l2.3349,-0.4601c3.4658,-0.6837 6.8585,-1.6168 10.1652,-2.7907c-1.8146,1.9952 -3.913,3.7152 -6.2737,5.1256l-3.3927,2.1844l1.8318,3.5819l1.3674,2.6746l2.9799,-0.3655c1.8275,-0.2236 3.6249,-0.5117 5.3965,-0.8729c-1.9952,1.8791 -4.1194,3.6292 -6.3554,5.246l-1.8748,1.3545l0.0989,2.3134c0.0602,1.376 0.0903,2.7649 0.0903,4.1538c0,44.7716 -34.0689,91.0826 -91.0783,91.0826c-11.7261,0 -23.2458,-2.2532 -33.9958,-6.5919c12.7237,-1.6426 24.639,-6.6306 34.8945,-14.6673l9.5159,-7.4605l-12.0873,-0.2236c-10.1953,-0.1892 -19.3672,-5.6373 -24.4799,-14.0911c3.182,-0.0516 6.3253,-0.4945 9.3568,-1.3244l17.5139,-4.7902l-17.802,-3.5733c-11.4509,-2.2962 -20.253,-11.223 -22.7341,-22.2826c3.2508,1.0105 6.6349,1.591 10.0405,1.6985l15.0285,0.4859l-12.5001,-8.3549c-8.1356,-5.4395 -12.9946,-14.534 -12.9946,-24.3251c0,-3.0659 0.4816,-6.0974 1.4104,-8.9827c17.5999,18.791 41.9164,30.1602 67.7078,31.4502l5.6846,0.2838l-1.2771,-5.547c-0.4988,-2.1715 -0.7568,-4.4161 -0.7568,-6.6736c-0.0043,-16.1121 13.1064,-29.2228 29.2228,-29.2228M117.4287,19.8531c-18.5115,0 -33.5228,15.0113 -33.5228,33.5228c0,2.6273 0.301,5.1858 0.8643,7.6368c-27.864,-1.3932 -52.5632,-14.7447 -69.101,-35.0235c-2.881,4.9493 -4.5322,10.707 -4.5322,16.856c0,11.6272 5.9168,21.887 14.9081,27.8984c-5.4954,-0.1763 -10.6597,-1.6813 -15.1833,-4.1925c0,0.1419 0,0.2795 0,0.4214c0,16.2454 11.5541,29.7947 26.8922,32.8692c-2.8122,0.7697 -5.7749,1.1782 -8.8365,1.1782c-2.1586,0 -4.2613,-0.2107 -6.3038,-0.5977c4.2699,13.3171 16.6453,23.0136 31.3169,23.2845c-11.4724,8.9956 -25.9247,14.3534 -41.6326,14.3534c-2.7047,0 -5.3707,-0.1548 -7.998,-0.4687c14.835,9.5116 32.4564,15.0586 51.3893,15.0586c61.662,0 95.3783,-51.084 95.3783,-95.3826c0,-1.4491 -0.0344,-2.8982 -0.0946,-4.3387c6.5489,-4.73 12.2335,-10.6339 16.727,-17.3548c-5.9555,2.6445 -12.1002,4.4032 -18.8125,5.2245l-0.0602,-0.1161c6.923,-4.1452 11.8508,-10.5479 14.3577,-18.3782c-6.4758,3.8399 -13.6525,6.6306 -21.2893,8.1356c-6.1146,-6.5145 -14.8264,-10.5866 -24.467,-10.5866z"></path></g></g></svg>